HIERARCHY
ROOT Hips
{
	OFFSET -0.001795 -0.223333 0.028219
	CHANNELS 6 Xposition Yposition Zposition Zrotation Yrotation Xrotation 
	JOINT LeftUpLeg
	{
		OFFSET 0.069520 -0.091406 -0.006815
		CHANNELS 3 Zrotation Yrotation Xrotation
		JOINT LeftLeg
		{
			OFFSET 0.034277 -0.375199 -0.004496
			CHANNELS 3 Zrotation Yrotation Xrotation
			JOINT LeftFoot
			{
				OFFSET -0.013596 -0.397961 -0.043693
				CHANNELS 3 Zrotation Yrotation Xrotation
				JOINT LeftToe
				{
					OFFSET 0.026358 -0.055791 0.119288
					CHANNELS 3 Zrotation Yrotation Xrotation
					End Site
					{
						OFFSET 0.000000 0.000000 0.000000
					}
				}
			}
		}
	}
	JOINT RightUpLeg
	{
		OFFSET -0.067670 -0.090522 -0.004320
		CHANNELS 3 Zrotation Yrotation Xrotation
		JOINT RightLeg
		{
			OFFSET -0.038290 -0.382569 -0.008850
			CHANNELS 3 Zrotation Yrotation Xrotation
			JOINT RightFoot
			{
				OFFSET 0.015774 -0.398415 -0.042312
				CHANNELS 3 Zrotation Yrotation Xrotation
				JOINT RightToe
				{
					OFFSET -0.025372 -0.048144 0.123348
					CHANNELS 3 Zrotation Yrotation Xrotation
					End Site
					{
						OFFSET 0.000000 0.000000 0.000000
					}
				}
			}
		}
	}
	JOINT Spine
	{
		OFFSET -0.002533 0.108963 -0.026696
		CHANNELS 3 Zrotation Yrotation Xrotation
		JOINT Spine1
		{
			OFFSET 0.005487 0.135180 0.001092
			CHANNELS 3 Zrotation Yrotation Xrotation
			JOINT Spine2
			{
				OFFSET 0.001457 0.052922 0.025425
				CHANNELS 3 Zrotation Yrotation Xrotation
				JOINT Neck
				{
					OFFSET -0.002778 0.213870 -0.042857
					CHANNELS 3 Zrotation Yrotation Xrotation
					JOINT Head
					{
						OFFSET 0.005152 0.064970 0.051349
						CHANNELS 3 Zrotation Yrotation Xrotation
						End Site
						{
							OFFSET 0.000000 0.000000 0.000000
						}
					}
				}
				JOINT LeftShoulder
				{
					OFFSET 0.078845 0.121749 -0.034090
					CHANNELS 3 Zrotation Yrotation Xrotation
					JOINT LeftArm
					{
						OFFSET 0.090977 0.030469 -0.008868
						CHANNELS 3 Zrotation Yrotation Xrotation
						JOINT LeftForeArm
						{
							OFFSET 0.259612 -0.012772 -0.027456
							CHANNELS 3 Zrotation Yrotation Xrotation
							JOINT LeftHand
							{
								OFFSET 0.249234 0.008986 -0.001171
								CHANNELS 3 Zrotation Yrotation Xrotation
								End Site
								{
									OFFSET 0.000000 0.000000 0.000000
								}
							}
						}
					}
				}
				JOINT RightShoulder
				{
					OFFSET -0.081759 0.118833 -0.038615
					CHANNELS 3 Zrotation Yrotation Xrotation
					JOINT RightArm
					{
						OFFSET -0.096012 0.032551 -0.009143
						CHANNELS 3 Zrotation Yrotation Xrotation
						JOINT RightForeArm
						{
							OFFSET -0.253742 -0.013329 -0.021401
							CHANNELS 3 Zrotation Yrotation Xrotation
							JOINT RightHand
							{
								OFFSET -0.255298 0.007772 -0.005559
								CHANNELS 3 Zrotation Yrotation Xrotation
								End Site
								{
									OFFSET 0.000000 0.000000 0.000000
								}
							}
						}
					}
				}
			}
		}
	}
}
MOTION
Frames: 9
Frame Time: 0.050000
0.000000 0.943238 0.000000 -1.626014 -14.547813 3.326981 5.457071 0.236567 2.750016 1.231038 -0.157775 -0.119203 9.719000 18.949134 15.014276 0.000000 0.000000 0.000000 -5.175247 0.350372 -0.545752 1.595940 -0.050956 2.027281 -4.777871 -15.763287 14.787692 0.000000 0.000000 0.000000 0.690391 0.250180 -4.441921 2.288888 -0.326057 -21.397551 0.325802 8.496444 25.801535 8.717165 -2.402734 -32.456068 0.000000 0.000000 0.000000 -20.114977 -5.983707 2.472984 -61.284627 0.643812 -9.869946 -25.134560 -50.792422 15.867908 0.000000 0.000000 0.000000 -6.391237 21.084768 6.117699 32.299561 72.199536 15.671056 -121.793574 38.994059 -56.057823 0.000000 0.000000 0.000000 
-0.000063 0.941674 0.001506 -2.450040 -16.675527 3.801089 6.527414 0.310283 3.413677 0.161017 0.003483 -0.750903 10.820813 20.514767 15.169807 0.000000 0.000000 0.000000 -4.017685 0.300100 -0.679872 0.472247 0.024043 1.318643 -3.739534 -14.154918 14.072638 0.000000 0.000000 0.000000 0.436135 0.282142 -4.834460 3.592264 -0.595600 -22.475047 1.115927 9.309447 27.051016 9.820188 -2.845920 -33.922390 0.000000 0.000000 0.000000 -21.243219 -5.031009 2.161952 -58.794505 3.645158 -11.065972 -37.684160 -53.630518 24.021764 0.000000 0.000000 0.000000 -8.525312 21.778104 5.950071 22.914043 74.275152 9.378220 -122.544830 31.604564 -45.987782 0.000000 0.000000 0.000000 
0.000086 0.940632 0.002805 -1.570737 -15.727031 3.306553 6.227990 0.308635 3.605461 -0.656045 0.113652 -0.820518 10.220035 19.731840 14.527297 0.000000 0.000000 0.000000 -4.931750 0.326391 -0.095511 0.632727 0.006010 1.244178 -4.348766 -14.948379 13.794090 0.000000 0.000000 0.000000 0.424937 0.240958 -4.293982 2.101016 -0.137633 -23.723936 1.485288 8.264796 27.587241 9.336699 -2.938785 -32.641771 0.000000 0.000000 0.000000 -21.543467 -3.700132 1.550805 -58.238972 4.726727 -11.558563 -36.767843 -53.547538 23.563537 0.000000 0.000000 0.000000 -8.346855 22.850863 6.248705 14.641307 72.855829 3.068467 -124.427971 29.382133 -44.614851 0.000000 0.000000 0.000000 
0.000242 0.940281 0.003807 -1.820490 -16.330523 3.539592 6.513835 0.317361 3.596521 -0.947209 0.153531 -0.783413 10.547850 20.204840 14.576683 0.000000 0.000000 0.000000 -4.561552 0.323478 -0.442859 0.233893 0.049043 1.459341 -4.076854 -14.525623 13.604203 0.000000 0.000000 0.000000 0.293549 0.275287 -4.814960 2.565745 -0.256052 -23.639798 1.425454 8.157574 27.426929 9.820723 -3.251192 -32.514381 0.000000 0.000000 0.000000 -22.122684 -2.490506 0.964757 -58.557361 7.240627 -12.768653 -40.250426 -55.366568 26.671794 0.000000 0.000000 0.000000 -9.391757 23.374195 6.237171 4.495221 74.282020 -4.197946 -122.662530 25.670715 -37.718329 0.000000 0.000000 0.000000 
0.000528 0.940456 0.004337 -1.561476 -15.970106 3.100074 6.167325 0.317135 3.604587 -0.735555 0.111925 -0.179435 10.363603 19.956476 14.449492 0.000000 0.000000 0.000000 -5.021020 0.324299 0.152210 0.608518 0.010055 1.283516 -4.231398 -14.750650 13.711804 0.000000 0.000000 0.000000 0.425405 0.240423 -4.285000 1.874842 -0.108794 -23.403594 1.317699 8.285673 27.167879 9.979750 -3.238061 -32.767887 0.000000 0.000000 0.000000 -21.596010 -2.689181 0.963719 -58.995861 8.350869 -13.341903 -39.746800 -56.418622 26.814049 0.000000 0.000000 0.000000 -9.433944 22.952058 6.116158 1.653105 74.240151 -6.074909 -123.711046 25.186269 -37.660404 0.000000 0.000000 0.000000 
0.000956 0.940818 0.004317 -1.772622 -15.249857 3.080725 6.489377 0.305964 3.673873 -0.711960 0.112001 -0.424939 9.979811 19.424018 14.214516 0.000000 0.000000 0.000000 -4.862249 0.294768 0.357035 0.866253 -0.013585 1.262303 -4.510883 -15.222012 14.081795 0.000000 0.000000 0.000000 0.382741 0.236170 -4.270876 1.613596 -0.007933 -23.812226 1.610176 8.137129 27.874796 9.728457 -3.004216 -33.319003 0.000000 0.000000 0.000000 -20.881709 -2.000231 0.508836 -59.489250 9.130776 -13.862848 -43.542992 -56.792001 29.393493 0.000000 0.000000 0.000000 -9.804894 22.367656 5.884111 -0.614108 73.927358 -7.571923 -123.503518 23.616104 -34.872272 0.000000 0.000000 0.000000 
0.001560 0.941194 0.003793 -1.893471 -14.578274 3.156412 6.697586 0.269853 3.277872 -0.690188 0.101870 -0.136576 9.664999 18.980254 13.982117 0.000000 0.000000 0.000000 -4.729063 0.285899 0.184353 0.990472 -0.013093 1.599527 -4.808861 -15.714220 14.390634 0.000000 0.000000 0.000000 0.486477 0.222883 -4.065463 1.363994 0.071818 -23.992587 1.734722 8.049883 28.000575 9.997731 -3.060156 -33.551432 0.000000 0.000000 0.000000 -20.292187 -1.351395 0.067575 -59.872214 10.198676 -14.464517 -45.118308 -56.480287 30.150505 0.000000 0.000000 0.000000 -9.675965 21.719029 5.732291 -1.052807 73.987187 -7.775760 -124.624128 23.466140 -35.236170 0.000000 0.000000 0.000000 
0.002301 0.941244 0.003060 -2.074445 -14.086158 3.332575 7.059696 0.235631 2.832457 -0.895487 0.124418 0.117189 9.444887 18.677806 13.691576 0.000000 0.000000 0.000000 -4.677822 0.294978 -0.169511 1.315870 -0.028174 2.005284 -5.039862 -16.086760 14.586427 0.000000 0.000000 0.000000 0.448397 0.234573 -4.282418 1.235123 0.107313 -23.963862 1.976419 8.167612 28.228272 9.866079 -2.931024 -33.589623 0.000000 0.000000 0.000000 -19.588285 -0.782782 -0.339153 -60.389442 11.268377 -15.111245 -48.152646 -56.799728 32.211714 0.000000 0.000000 0.000000 -9.739058 21.091206 5.545375 -0.110138 73.529082 -6.883987 -125.373201 23.584207 -35.770099 0.000000 0.000000 0.000000 
0.003170 0.941389 0.002382 -2.306641 -13.644856 3.376662 7.306988 0.223390 2.769772 -0.831854 0.116942 -0.009514 9.237281 18.390987 13.481229 0.000000 0.000000 0.000000 -4.555964 0.282705 -0.178269 1.578589 -0.051859 2.057431 -5.206513 -16.364841 14.850468 0.000000 0.000000 0.000000 0.296272 0.229423 -4.257988 1.311857 0.111419 -24.227979 2.237989 8.210487 28.373012 10.009445 -2.961796 -33.568584 0.000000 0.000000 0.000000 -19.086640 -0.303434 -0.663416 -60.727134 12.239765 -15.678096 -50.593957 -56.473289 33.517768 0.000000 0.000000 0.000000 -9.123677 20.711002 5.530925 2.786369 72.898488 -4.692606 -125.833057 24.540407 -37.520155 0.000000 0.000000 0.000000 
